<?xml version="1.0" encoding="iso-8859-1"?>
<!-- Uploaded to: SVG Repo, www.svgrepo.com, Generator: SVG Repo Mixer Tools -->
<svg fill="#FFFFFF" id="Layer_1" height="40px" width="40px" xmlns="http://www.w3.org/2000/svg" xmlns:xlink="http://www.w3.org/1999/xlink" 
	 viewBox="0 0 226.986 226.986" xml:space="preserve">
<g>
	<g>
		<g>
			<path d="M203.262,87.735h-16.853V50.047c0-11.966-10.644-21.7-23.726-21.7H23.726C10.642,28.348,0,38.082,0,50.047v67.513
				c0,11.963,10.644,21.697,23.726,21.697h16.853v37.685c0,11.963,10.644,21.697,23.726,21.697H203.26
				c13.082,0,23.726-9.734,23.726-21.697v-67.513C226.991,97.469,216.344,87.735,203.262,87.735z M15.217,50.05
				c0-3.515,3.898-6.482,8.509-6.482h138.957c4.613,0,8.509,2.967,8.509,6.482v11.765H15.217V50.05z M40.581,109.432v14.608
				c0,0.001-16.855,0.001-16.855,0.001c-4.613,0-8.509-2.967-8.509-6.48V77.032h155.975v10.703H64.307
				C51.225,87.735,40.581,97.469,40.581,109.432z M203.265,183.425H64.307c-4.613,0-8.509-2.967-8.509-6.48v-67.513
				c0-3.513,3.896-6.48,8.509-6.48h138.955c4.613,0,8.509,2.967,8.509,6.48v67.513h0.003
				C211.774,180.458,207.878,183.425,203.265,183.425z"/>
			<rect x="71.967" y="135.578" width="41.53" height="15.217"/>
			<rect x="71.967" y="156.501" width="21.241" height="15.217"/>
		</g>
	</g>
</g>
</svg>