<?xml version="1.0" encoding="UTF-8" standalone="no" ?>
<!DOCTYPE svg PUBLIC "-//W3C//DTD SVG 1.1//EN" "http://www.w3.org/Graphics/SVG/1.1/DTD/svg11.dtd">
<svg xmlns="http://www.w3.org/2000/svg" xmlns:xlink="http://www.w3.org/1999/xlink" version="1.1" viewBox="0 0 600 480">
<defs>
</defs>
<g transform="matrix(4.04 0 0 4.04 291.06 223.31)"  >
<circle style="stroke: rgb(0,0,0); stroke-width: 8; stroke-dasharray: none; stroke-linecap: butt; stroke-dashoffset: 0; stroke-linejoin: miter; stroke-miterlimit: 4; fill: none; fill-rule: nonzero; opacity: 1;"  cx="0" cy="0" r="40" />
</g>
<g transform="matrix(1.44 0 0 1.44 291.18 224.28)"  >
<g style=""   >
		<g transform="matrix(0.02 0 0 -0.02 -53.22 31.7)"  >
<path style="stroke: none; stroke-width: 1; stroke-dasharray: none; stroke-linecap: butt; stroke-dashoffset: 0; stroke-linejoin: miter; stroke-miterlimit: 4; fill: rgb(4,6,6); fill-rule: nonzero; opacity: 1;"  transform=" translate(-7890.2, -13955)" d="m 9661.02 11615.4 c 0 -2.6 -2.84 -5.4 -5.5 -5.4 H 8173.17 c -272.28 0 -526.5 142.3 -663.35 371.2 l -11.6 19.4 c -123.83 222.9 -126.46 508 -5.19 732.9 l 393.37 729.1 h 1769.12 c 2.66 0 5.5 -2.7 5.5 -5.4 z m -3447.75 3272.1 l 484.02 896.2 l -400.6 216.4 c -1.38 0.7 -2.07 1.2 -2.21 1.3 c -0.59 1.7 -0.52 6.6 1.74 10.6 c 1.2 2.2 1.68 2.8 5.48 3.3 l 1723.6 284.5 c 0.75 0.2 1.17 0.2 1.23 0.2 c 0.44 -0.3 1.64 -1.4 2.86 -3.8 l 709.28 -1590.6 c 1.91 -4.4 1.83 -6.5 -0.28 -10.1 c -3.13 -5.3 -8.16 -7.9 -9.46 -8 c -0.19 0 -0.9 0.2 -2.07 0.8 L 8328.54 14905.8 L 7232.45 12874 c -44.91 -83.3 -77.58 -172.5 -98.09 -264.5 l -107.81 180.4 l -19.06 31.8 h -0.01 l -777.41 1301.9 c -141.42 235.6 -147.68 521.2 -16.8 763.9" stroke-linecap="round" />
</g>
		<g transform="matrix(0.02 0 0 -0.02 46.98 36.99)"  >
<path style="stroke: none; stroke-width: 1; stroke-dasharray: none; stroke-linecap: butt; stroke-dashoffset: 0; stroke-linejoin: miter; stroke-miterlimit: 4; fill: rgb(4,6,6); fill-rule: nonzero; opacity: 1;"  transform=" translate(-12682.18, -13736.54)" d="m 13374.7 12019 c -140.3 -236.6 -389.4 -377.8 -666.2 -377.8 l -1021.4 0.6 v -456.3 c 0 -1.6 -0.2 -2.4 -0.1 -2.5 c -1.3 -1.5 -5.7 -3.8 -10.6 -3.8 c -0.1 0 -0.1 0 -0.1 0 c -2.7 0 -3.6 0.3 -5.9 3.3 L 10599.7 12569 c -0.2 0.3 -0.3 0.5 -0.4 0.6 c 0.1 0.4 0.3 1.8 1.8 3.8 l 1067 1383.2 c 3.1 3.8 4.7 4.6 8.9 4.5 c 6 -0.3 10.5 -3.5 11.3 -4.6 c 0 0 0.2 -0.7 0.3 -2.3 l -2.3 -455.2 c 0 0 2314.7 -0.5 2315.1 -0.5 c 94.8 0 188.9 13.5 279.6 39.1 l -34.7 -58.2 l -4.1 -6.8 v 0 z m -1086.4 3408.7 c -7.9 14.8 -5.3 28.7 -3.1 35.7 c 2.7 8.3 8.6 19.7 22.3 26.6 l 1577.7 798.7 l 1 0.5 c 20.9 10.8 46.5 2.3 58.6 -19.4 l 729.3 -1348.8 c 127.1 -234.8 120.6 -523.5 -16.9 -753.4 l -0.1 0.1 l -1.4 -2.1 c -134.8 -225 -391.3 -370.3 -654.2 -370.3 l -830.9 0.2 l -882.3 1632.2" stroke-linecap="round" />
</g>
		<g transform="matrix(0.03 0 0 -0.03 12.29 -54.78)"  >
<path style="stroke: none; stroke-width: 1; stroke-dasharray: none; stroke-linecap: butt; stroke-dashoffset: 0; stroke-linejoin: miter; stroke-miterlimit: 4; fill: rgb(4,6,6); fill-rule: nonzero; opacity: 1;"  transform=" translate(-8599.79, -15188.27)" d="m 6321.53 14909.7 l 645.68 1083.8 c 113.1 189.1 319.95 306.5 539.84 306.5 v 0 c 216.93 0 428.67 -120.3 539.37 -306.4 l 35.49 -59.6 h 0.31 c 63.64 -106.5 202.32 -338.9 314.74 -527.4 l -783.17 -1312.5 c -6.79 -11.4 -17.22 -15.2 -22.83 -16.6 c -6.6 -1.5 -16.58 -2 -26.61 4.5 l -1231.9 778.2 c -16.44 10.3 -21.2 32.2 -10.92 49.5 z m 3791.97 1078.8 l 437.3 -734.7 l 322.3 193.3 c 1.1 0.6 1.7 0.8 1.8 0.9 c 1.5 -0.2 5.3 -2.4 7.5 -6.1 c 1.3 -2.2 1.5 -3.3 0.1 -7 l -528.1 -1338.1 c -0.6 -1.6 -1.1 -2.3 -1.1 -2.4 c -0.3 0 -1.1 -0.3 -2.9 -0.1 l -1427.46 170.8 c -3.36 0.4 -4.53 1.1 -6.02 3.7 c -2.26 3.7 -2.58 8.1 -2.19 10 c 0.16 0.2 0.47 0.3 0.86 0.6 l 323.03 191.8 l -982.3 1647.4 c -39.87 67 -89.2 127.9 -145.64 181.4 h 1454.1 c 226.64 0 431.93 -116.6 548.72 -311.5" stroke-linecap="round" />
</g>
</g>
</g>
</svg>