<svg id="euYRGpebyVM1" xmlns="http://www.w3.org/2000/svg" xmlns:xlink="http://www.w3.org/1999/xlink" viewBox="0 0 300 300" shape-rendering="geometricPrecision" text-rendering="geometricPrecision"><rect width="120" height="180" rx="16" ry="16" transform="translate(90 60)" fill="rgba(255,255,255,0)" stroke="white" stroke-width="5"/><g transform="matrix(0 1-1 0 490.80001 0.80001)"><line x1="-60" y1="0" x2="-35" y2="0" transform="matrix(.866025 0.5-.5 0.866025 274.079935 288.174759)" fill="none" stroke="white" stroke-width="5"/><g transform="matrix(.866025 0.5-.5 0.866025 195.176479-57.171544)"><line x1="-60" y1="0" x2="-2.536661" y2="0" transform="matrix(.159334 0.069979 0.402125-.915585 205.866025 258.866025)" fill="none" stroke="white" stroke-width="3"/><line x1="-60" y1="0" x2="-2.536661" y2="0" transform="matrix(.159335-.069976-.402108-.915592 205.8 260.6)" fill="none" stroke="white" stroke-width="3"/></g><g transform="matrix(-.80664-.591043 0.591043-.80664 239.483235 592.124864)"><line x1="-60" y1="0" x2="-2.536661" y2="0" transform="matrix(.159334 0.069979 0.402125-.915585 210.950731 258.14564)" fill="none" stroke="white" stroke-width="3"/><line x1="-60" y1="0" x2="-2.536661" y2="0" transform="matrix(.139063-.104622-.601193-.799104 211.017863 260.104044)" fill="none" stroke="white" stroke-width="3"/></g></g></svg>
